<svg xmlns="http://www.w3.org/2000/svg" xmlns:xlink="http://www.w3.org/1999/xlink" width="638.855" height="651.797" viewBox="0 0 638.855 651.797"><defs><clipPath id="a"><rect width="444.503" height="488.515" fill="none"/></clipPath></defs><g transform="matrix(0.839, -0.545, 0.545, 0.839, 0, 242.094)" opacity="0.48" clip-path="url(#a)"><g fill="none"><path d="M217.534,0C337.674,0,435.068,93.269,435.068,208.322s47.918,280.193-72.223,280.193S0,323.376,0,208.322,97.393,0,217.534,0Z" stroke="none"/><path d="M 217.5338745117188 3 C 202.9676818847656 3 188.4116821289063 4.405120849609375 174.2701110839844 7.1763916015625 C 160.4906616210938 9.876708984375 146.9371643066406 13.90570068359375 133.9861145019531 19.15158081054688 C 121.2716064453125 24.3016357421875 109.0087280273438 30.67581176757813 97.53823852539063 38.09701538085938 C 86.17831420898438 45.44662475585938 75.49636840820313 53.88674926757813 65.78912353515625 63.18289184570313 C 56.08416748046875 72.47689819335938 47.2738037109375 82.70281982421875 39.60275268554688 93.57669067382813 C 31.86041259765625 104.5515747070313 25.21099853515625 116.2832641601563 19.839111328125 128.4459533691406 C 14.36929321289063 140.8304443359375 10.16842651367188 153.7901306152344 7.353302001953125 166.9649963378906 C 4.46466064453125 180.483642578125 3 194.398193359375 3 208.3223266601563 C 3 215.13818359375 3.8990478515625 222.3404541015625 5.67218017578125 229.7291259765625 C 7.402618408203125 236.9398193359375 10.00485229492188 244.4935760498047 13.40667724609375 252.1806335449219 C 19.9775390625 267.0286865234375 29.65411376953125 282.7131958007813 42.16754150390625 298.7984619140625 C 65.67462158203125 329.0151977539063 98.86373901367188 360.2571411132813 138.1470031738281 389.1467590332031 C 156.9068603515625 402.943115234375 176.6244201660156 415.882080078125 196.7519836425781 427.6041259765625 C 216.8928527832031 439.3339538574219 237.0503692626953 449.6157531738281 256.6644897460938 458.1640014648438 C 297.7206726074219 476.0570678710938 334.437255859375 485.514892578125 362.8447265625 485.514892578125 C 369.1346130371094 485.514892578125 375.1004943847656 485.0426940917969 380.5767211914063 484.1114501953125 C 385.875732421875 483.2102661132813 390.8702392578125 481.8529357910156 395.4213562011719 480.0771484375 C 399.8209838867188 478.3603820800781 403.9389343261719 476.2006225585938 407.6607360839844 473.6577453613281 C 411.2662963867188 471.1943359375 414.6127319335938 468.294189453125 417.6070556640625 465.0380859375 C 421.3163757324219 461.0044555664063 424.6216735839844 456.2750244140625 427.4313049316406 450.9811401367188 C 430.1309204101563 445.8945007324219 432.4629211425781 440.116943359375 434.3626098632813 433.808837890625 C 436.1708068847656 427.8043823242188 437.6494750976563 421.1112060546875 438.7575378417969 413.9151916503906 C 439.7977905273438 407.1595764160156 440.5501708984375 399.7047729492188 440.9936828613281 391.7578735351563 C 441.7676086425781 377.8912658691406 441.6534423828125 361.7888793945313 440.6446838378906 342.5305786132813 C 439.7432250976563 325.3213195800781 438.2287292480469 307.2745056152344 436.7640991210938 289.8218994140625 C 434.4552307128906 262.3095092773438 432.0677490234375 233.8604431152344 432.0677490234375 208.3223266601563 C 432.0677490234375 194.398193359375 430.6030578613281 180.483642578125 427.7144165039063 166.9649963378906 C 424.8992919921875 153.7901306152344 420.6984252929688 140.8304443359375 415.2286071777344 128.4459533691406 C 409.8567504882813 116.2832641601563 403.2073059082031 104.5515747070313 395.4649963378906 93.57669067382813 C 387.7939147949219 82.70281982421875 378.9835510253906 72.47689819335938 369.2786254882813 63.18289184570313 C 359.5713500976563 53.88674926757813 348.889404296875 45.44662475585938 337.5294799804688 38.09701538085938 C 326.0589904785156 30.67581176757813 313.7961120605469 24.3016357421875 301.0816040039063 19.15158081054688 C 288.1305541992188 13.90570068359375 274.5770568847656 9.876708984375 260.797607421875 7.1763916015625 C 246.6560516357422 4.405120849609375 232.1000518798828 3 217.5338745117188 3 M 217.5338745117188 0 C 337.6744995117188 0 435.0677490234375 93.26907348632813 435.0677490234375 208.3223266601563 C 435.0677490234375 323.3755493164063 482.9853515625 488.514892578125 362.8447265625 488.514892578125 C 242.7041168212891 488.514892578125 0 323.3755493164063 0 208.3223266601563 C 0 93.26907348632813 97.39324951171875 0 217.5338745117188 0 Z" stroke="none" fill="rgba(224,225,232,0.7)"/></g><g transform="translate(25.509 19.84)" fill="none"><path d="M179.271,0c99.008,0,179.271,80.9,179.271,180.688s22.5,209.239-76.509,209.239S0,280.479,0,180.688,80.262,0,179.271,0Z" stroke="none"/><path d="M 179.2705535888672 2.999969482421875 C 167.3103942871094 2.999969482421875 155.358642578125 4.2142333984375 143.7472534179688 6.60906982421875 C 132.4322509765625 8.942779541015625 121.3023986816406 12.42498779296875 110.6668395996094 16.95901489257813 C 100.2232971191406 21.41119384765625 90.15008544921875 26.92196655273438 80.72720336914063 33.33831787109375 C 71.39254760742188 39.69451904296875 62.61444091796875 46.99441528320313 54.63681030273438 55.03518676757813 C 46.65869140625 63.07632446289063 39.41555786132813 71.92446899414063 33.10855102539063 81.33383178710938 C 26.74130249023438 90.8331298828125 21.27255249023438 100.9881286621094 16.854248046875 111.5167846679688 C 12.35440063476563 122.2398376464844 8.898345947265625 133.4613647460938 6.5821533203125 144.8697357177734 C 4.2052001953125 156.5774230957031 3 168.6283264160156 3 180.6877288818359 C 3 186.5918731689453 3.67669677734375 192.701171875 5.011260986328125 198.8459320068359 C 6.312255859375 204.8358764648438 8.2696533203125 211.0046844482422 10.8291015625 217.1808776855469 C 15.76943969726563 229.1022796630859 23.06781005859375 241.3723754882813 32.521484375 253.6504364013672 C 41.51956176757813 265.3367309570313 52.4954833984375 277.0691223144531 65.14456176757813 288.5218811035156 C 77.26290893554688 299.4940795898438 90.86859130859375 310.1703796386719 105.583740234375 320.2541809082031 C 119.8671569824219 330.0421142578125 135.039794921875 339.1679382324219 150.6801910400391 347.3780212402344 C 166.1387023925781 355.49267578125 181.8110046386719 362.5863647460938 197.2617950439453 368.4621887207031 C 212.8372497558594 374.3853759765625 227.9338531494141 378.9734802246094 242.1322479248047 382.09912109375 C 256.6837158203125 385.302490234375 270.1079406738281 386.9267272949219 282.0321044921875 386.9267272949219 C 288.0791015625 386.9267272949219 293.8038330078125 386.5009155273438 299.04736328125 385.6611938476563 C 304.1204528808594 384.8486938476563 308.8936157226563 383.6244812011719 313.234130859375 382.0224914550781 C 317.4252319335938 380.4756774902344 321.34228515625 378.5286865234375 324.8764038085938 376.2356262207031 C 328.29345703125 374.0185241699219 331.4627990722656 371.4061279296875 334.2965087890625 368.4709777832031 C 337.4475402832031 365.20703125 340.2972412109375 361.425537109375 342.766357421875 357.2314758300781 C 345.14453125 353.1917724609375 347.2521057128906 348.6292419433594 349.0303955078125 343.6706237792969 C 352.3580932617188 334.391845703125 354.6564025878906 323.555419921875 356.0567016601563 310.5423278808594 C 357.2546081542969 299.4098205566406 357.7876892089844 286.9586791992188 357.7344360351563 271.3578186035156 C 357.687255859375 257.5346069335938 357.1907958984375 243.4288330078125 356.6651916503906 228.4947814941406 C 356.1126098632813 212.7929229736328 355.5411376953125 196.5564727783203 355.5411376953125 180.6877288818359 C 355.5411376953125 168.6283264160156 354.3359375 156.5774230957031 351.958984375 144.8697357177734 C 349.6427917480469 133.4613647460938 346.1867370605469 122.2398376464844 341.6868896484375 111.5167846679688 C 337.2685546875 100.9881286621094 331.7998352050781 90.8331298828125 325.4325561523438 81.33383178710938 C 319.1255493164063 71.92446899414063 311.8824462890625 63.07632446289063 303.9043579101563 55.03518676757813 C 295.9266357421875 46.99441528320313 287.1485900878906 39.69451904296875 277.81396484375 33.33831787109375 C 268.3909912109375 26.92196655273438 258.3178405761719 21.41119384765625 247.8742523193359 16.95901489257813 C 237.2386932373047 12.42498779296875 226.1088409423828 8.942779541015625 214.7938537597656 6.60906982421875 C 203.1824493408203 4.2142333984375 191.2306976318359 2.999969482421875 179.2705535888672 2.999969482421875 M 179.2705535888672 -3.0517578125e-05 C 278.2789306640625 -3.0517578125e-05 358.5411376953125 80.89666748046875 358.5411376953125 180.6877288818359 C 358.5411376953125 280.4787902832031 381.0404968261719 389.9267272949219 282.0321044921875 389.9267272949219 C 183.0236968994141 389.9267272949219 0 280.4787902832031 0 180.6877288818359 C 0 80.89666748046875 80.26214599609375 -3.0517578125e-05 179.2705535888672 -3.0517578125e-05 Z" stroke="none" fill="rgba(128,242,132,0.7)"/></g><g transform="translate(46.766 41.098)" fill="none"><path d="M142.424,0c78.659,0,142.424,64.4,142.424,143.842s-1.922,158.7-80.58,158.7S0,223.283,0,143.842,63.766,0,142.424,0Z" stroke="none"/><path d="M 142.4244537353516 3 C 132.9647064208984 3 123.5117034912109 3.962310791015625 114.328125 5.8602294921875 C 105.3791656494141 7.709686279296875 96.57658386230469 10.4693603515625 88.1649169921875 14.0626220703125 C 79.90478515625 17.59112548828125 71.9375 21.95870971679688 64.48440551757813 27.04397583007813 C 57.10078430175781 32.0819091796875 50.15736389160156 37.86782836914063 43.84695434570313 44.24102783203125 C 37.53604125976563 50.61474609375 31.80645751953125 57.62811279296875 26.81741333007813 65.08641052246094 C 21.78060913085938 72.61598205566406 17.45462036132813 80.66532897949219 13.95953369140625 89.01081848144531 C 10.39990234375 97.51045227050781 7.666046142578125 106.4052734375 5.833831787109375 115.4482421875 C 3.953399658203125 124.7288665771484 3 134.2817840576172 3 143.8416137695313 C 3 153.1181945800781 4.805694580078125 162.7384033203125 8.36700439453125 172.4350738525391 C 11.76531982421875 181.68798828125 16.79428100585938 191.1083679199219 23.31430053710938 200.4345397949219 C 29.552001953125 209.3570251464844 37.17982482910156 218.2340698242188 45.98587036132813 226.8191528320313 C 54.46612548828125 235.0866088867188 64.02337646484375 243.0711517333984 74.39224243164063 250.5509948730469 C 94.61732482910156 265.140869140625 117.3844604492188 277.4385681152344 140.2322845458984 286.1146545410156 C 163.3704528808594 294.9010314941406 185.5138244628906 299.5452270507813 204.2684020996094 299.5452270507813 C 213.5409851074219 299.5452270507813 222.0084991455078 298.3914489746094 229.4357452392578 296.1159057617188 C 232.9935760498047 295.02587890625 236.3945770263672 293.6537475585938 239.5443267822266 292.0376892089844 C 242.6056213378906 290.467041015625 245.5214538574219 288.61865234375 248.2109069824219 286.5439147949219 C 250.8293304443359 284.5239868164063 253.3128662109375 282.2279357910156 255.5925750732422 279.7196044921875 C 257.8140258789063 277.275390625 259.90966796875 274.5550231933594 261.8212585449219 271.6341247558594 C 265.4806213378906 266.0426025390625 268.6432495117188 259.4371948242188 271.2212524414063 252.0012817382813 C 273.6525268554688 244.9886474609375 275.5879211425781 237.2845764160156 277.1380004882813 228.4488525390625 C 278.5366516113281 220.4762420654297 279.5802001953125 211.8008117675781 280.3282165527344 201.9268188476563 C 281.7326354980469 183.3876037597656 281.8489074707031 163.8724517822266 281.8489074707031 143.8416137695313 C 281.8489074707031 134.2817840576172 280.8955078125 124.7288665771484 279.0150756835938 115.4482421875 C 277.182861328125 106.4052734375 274.4490051269531 97.51045227050781 270.8893737792969 89.01081848144531 C 267.394287109375 80.66532897949219 263.0682983398438 72.61598205566406 258.031494140625 65.08641052246094 C 253.0424499511719 57.62811279296875 247.3128662109375 50.61474609375 241.001953125 44.24102783203125 C 234.6915283203125 37.86782836914063 227.7481231689453 32.0819091796875 220.364501953125 27.04397583007813 C 212.9114074707031 21.95870971679688 204.9441223144531 17.59112548828125 196.6839904785156 14.0626220703125 C 188.2723388671875 10.4693603515625 179.4697418212891 7.709686279296875 170.5207824707031 5.8602294921875 C 161.3372039794922 3.962310791015625 151.8842010498047 3 142.4244537353516 3 M 142.4244537353516 0 C 221.0833282470703 0 284.8489074707031 64.40007019042969 284.8489074707031 143.8416137695313 C 284.8489074707031 223.2831573486328 282.9272766113281 302.5452270507813 204.2684020996094 302.5452270507813 C 125.6095733642578 302.5452270507813 0 223.2831573486328 0 143.8416137695313 C 0 64.40007019042969 63.76557922363281 0 142.4244537353516 0 Z" stroke="none" fill="rgba(205,189,239,0.7)"/></g></g></svg>