<svg xmlns="http://www.w3.org/2000/svg" xmlns:xlink="http://www.w3.org/1999/xlink" width="535" height="669" viewBox="0 0 535 669"><defs><clipPath id="a"><rect width="535" height="669" transform="translate(2693 510)" fill="#fff" stroke="#707070" stroke-width="1"/></clipPath><clipPath id="b"><rect width="714.816" height="798.282" fill="none"/></clipPath></defs><g transform="translate(-2693 -510)" clip-path="url(#a)"><g transform="translate(2685.786 380.255)" clip-path="url(#b)"><path d="M210.484,59.032c12.161-24.323,46.871-24.323,59.032,0l186.6,373.21A33,33,0,0,1,426.6,480H53.4a33,33,0,0,1-29.516-47.758Z" transform="translate(283.395 0) rotate(26)" fill="#c33e3e" opacity="0.63"/><path d="M210.484,59.032c12.161-24.323,46.871-24.323,59.032,0l186.6,373.21A33,33,0,0,1,426.6,480H53.4a33,33,0,0,1-29.516-47.758Z" transform="translate(210.418 156.443) rotate(26)" fill="#d2d7da" opacity="0.8"/></g></g></svg>